<svg aria-hidden="true" style="position: absolute; width: 0; height: 0; overflow: hidden;" version="1.1" xmlns="http://www.w3.org/2000/svg" xmlns:xlink="http://www.w3.org/1999/xlink">
<defs>
<symbol id="magnifyer" viewBox="0 0 32 32">
<title>magnifyer</title>
<path d="M30.786 26.636c0.53 0.53 0.859 1.264 0.859 2.075 0 1.62-1.314 2.933-2.933 2.933-0.811 0-1.543-0.329-2.075-0.86v0l-8.597-8.596c-1.746 1.031-3.776 1.634-5.95 1.634-6.48 0-11.733-5.253-11.733-11.733s5.253-11.733 11.733-11.733c6.48 0 11.733 5.253 11.733 11.733 0 2.174-0.603 4.204-1.634 5.95l8.597 8.597zM12.089 3.287c-4.86 0-8.8 3.941-8.8 8.802s3.94 8.8 8.8 8.8c4.86 0 8.8-3.94 8.8-8.8s-3.94-8.802-8.8-8.802z"></path>
</symbol>
<symbol id="cart" viewBox="0 0 32 32">
<title>cart</title>
<path d="M31.513 6.512h0.002l-4.4 9.778c-0.217 0.482-0.686 0.825-1.239 0.862v0l-12.672 0.844 0.732 2.091h13.797c1.62 0 2.933 1.314 2.933 2.935 0 1.62-1.314 2.933-2.933 2.933s-2.933-1.314-2.933-2.933h-13.689c0 1.62-1.314 2.933-2.933 2.933s-2.933-1.314-2.933-2.933c0-1.621 1.314-2.935 2.933-2.935h2.651l-5.646-16.132h-3.36c-0.811 0-1.467-0.658-1.467-1.467 0-0.811 0.656-1.467 1.467-1.467h4.4c0.64 0 1.179 0.412 1.38 0.983l0.005-0.002 0.853 2.441h21.717c0.811 0 1.467 0.656 1.467 1.467 0 0.213-0.048 0.416-0.132 0.601zM9.488 7.378l2.711 7.746 12.603-0.841 3.108-6.905h-18.421z"></path>
</symbol>
</defs>
</svg>
